<?xml version="1.0" encoding="utf-8"?>
<!-- Generator: Adobe Illustrator 19.0.0, SVG Export Plug-In . SVG Version: 6.00 Build 0)  -->
<svg version="1.1" id="Layer_1" xmlns="http://www.w3.org/2000/svg" xmlns:xlink="http://www.w3.org/1999/xlink" x="0px" y="0px"
	 viewBox="0 0 85 85" style="enable-background:new 0 0 85 85;" xml:space="preserve">
<style type="text/css">
	.st0{fill:#231F20;stroke:#231F20;stroke-width:1.8286;stroke-miterlimit:10;}
	.st1{fill:#FFFFFF;stroke:#FFFFFF;stroke-width:0.9143;stroke-miterlimit:10;}
</style>
<g id="XMLID_9441_">
	<rect id="XMLID_9502_" x="20.2" y="20.9" class="st0" width="44.9" height="43.9"/>
	<circle id="XMLID_9501_" class="st1" cx="23.2" cy="26.1" r="0.5"/>
	<circle id="XMLID_9500_" class="st1" cx="28.7" cy="28.9" r="0.5"/>
	<circle id="XMLID_9499_" class="st1" cx="28.7" cy="23.4" r="0.5"/>
	<circle id="XMLID_9498_" class="st1" cx="23.3" cy="31.6" r="0.5"/>
	<circle id="XMLID_9497_" class="st1" cx="28.7" cy="34.3" r="0.5"/>
	<circle id="XMLID_9496_" class="st1" cx="23.2" cy="37" r="0.5"/>
	<circle id="XMLID_9495_" class="st1" cx="28.7" cy="39.9" r="0.5"/>
	<circle id="XMLID_9494_" class="st1" cx="23.2" cy="42.6" r="0.5"/>
	<circle id="XMLID_9493_" class="st1" cx="28.7" cy="45.3" r="0.5"/>
	<circle id="XMLID_9492_" class="st1" cx="23.2" cy="48.1" r="0.5"/>
	<circle id="XMLID_9491_" class="st1" cx="28.7" cy="50.8" r="0.5"/>
	<circle id="XMLID_9490_" class="st1" cx="23.2" cy="53.6" r="0.5"/>
	<circle id="XMLID_9489_" class="st1" cx="23.2" cy="59" r="0.5"/>
	<circle id="XMLID_9488_" class="st1" cx="28.7" cy="56.2" r="0.5"/>
	<circle id="XMLID_9487_" class="st1" cx="28.7" cy="61.7" r="0.5"/>
	<circle id="XMLID_9486_" class="st1" cx="34.2" cy="26.2" r="0.5"/>
	<circle id="XMLID_9485_" class="st1" cx="39.7" cy="29" r="0.5"/>
	<circle id="XMLID_9484_" class="st1" cx="39.7" cy="23.4" r="0.5"/>
	<circle id="XMLID_9483_" class="st1" cx="34.2" cy="31.7" r="0.5"/>
	<circle id="XMLID_9482_" class="st1" cx="39.7" cy="34.4" r="0.5"/>
	<circle id="XMLID_9481_" class="st1" cx="34.2" cy="37.1" r="0.5"/>
	<circle id="XMLID_9480_" class="st1" cx="39.7" cy="40" r="0.5"/>
	<circle id="XMLID_9479_" class="st1" cx="34.2" cy="42.7" r="0.5"/>
	<circle id="XMLID_9478_" class="st1" cx="39.7" cy="45.4" r="0.5"/>
	<circle id="XMLID_9477_" class="st1" cx="34.2" cy="48.2" r="0.5"/>
	<circle id="XMLID_9476_" class="st1" cx="39.6" cy="50.9" r="0.5"/>
	<circle id="XMLID_9475_" class="st1" cx="34.2" cy="53.7" r="0.5"/>
	<circle id="XMLID_9474_" class="st1" cx="34.2" cy="59.1" r="0.5"/>
	<circle id="XMLID_9473_" class="st1" cx="39.7" cy="56.3" r="0.5"/>
	<circle id="XMLID_9472_" class="st1" cx="39.7" cy="61.8" r="0.5"/>
	<circle id="XMLID_9471_" class="st1" cx="45.2" cy="26.1" r="0.5"/>
	<circle id="XMLID_9470_" class="st1" cx="50.7" cy="28.9" r="0.5"/>
	<circle id="XMLID_9469_" class="st1" cx="50.7" cy="23.4" r="0.5"/>
	<circle id="XMLID_9468_" class="st1" cx="45.2" cy="31.7" r="0.5"/>
	<circle id="XMLID_9467_" class="st1" cx="50.7" cy="34.4" r="0.5"/>
	<circle id="XMLID_9466_" class="st1" cx="45.2" cy="37.1" r="0.5"/>
	<circle id="XMLID_9465_" class="st1" cx="50.7" cy="39.9" r="0.5"/>
	<circle id="XMLID_9464_" class="st1" cx="45.2" cy="42.7" r="0.5"/>
	<circle id="XMLID_9463_" class="st1" cx="50.7" cy="45.4" r="0.5"/>
	<circle id="XMLID_9462_" class="st1" cx="45.2" cy="48.1" r="0.5"/>
	<circle id="XMLID_9461_" class="st1" cx="50.7" cy="50.8" r="0.5"/>
	<circle id="XMLID_9460_" class="st1" cx="45.2" cy="53.6" r="0.5"/>
	<circle id="XMLID_9459_" class="st1" cx="45.2" cy="59" r="0.5"/>
	<circle id="XMLID_9458_" class="st1" cx="50.7" cy="56.3" r="0.5"/>
	<circle id="XMLID_9457_" class="st1" cx="50.7" cy="61.8" r="0.5"/>
	<circle id="XMLID_9456_" class="st1" cx="56.2" cy="26.2" r="0.5"/>
	<circle id="XMLID_9455_" class="st1" cx="61.7" cy="29" r="0.5"/>
	<circle id="XMLID_9454_" class="st1" cx="61.7" cy="23.5" r="0.5"/>
	<circle id="XMLID_9453_" class="st1" cx="56.2" cy="31.7" r="0.5"/>
	<circle id="XMLID_9452_" class="st1" cx="61.6" cy="34.5" r="0.5"/>
	<circle id="XMLID_9451_" class="st1" cx="56.2" cy="37.2" r="0.5"/>
	<circle id="XMLID_9450_" class="st1" cx="61.7" cy="40" r="0.5"/>
	<circle id="XMLID_9449_" class="st1" cx="56.2" cy="42.7" r="0.5"/>
	<circle id="XMLID_9448_" class="st1" cx="61.7" cy="45.4" r="0.5"/>
	<circle id="XMLID_9447_" class="st1" cx="56.2" cy="48.2" r="0.5"/>
	<circle id="XMLID_9446_" class="st1" cx="61.6" cy="50.9" r="0.5"/>
	<circle id="XMLID_9445_" class="st1" cx="56.2" cy="53.7" r="0.5"/>
	<circle id="XMLID_9444_" class="st1" cx="56.2" cy="59.1" r="0.5"/>
	<circle id="XMLID_9443_" class="st1" cx="61.7" cy="56.4" r="0.5"/>
	<circle id="XMLID_9442_" class="st1" cx="61.6" cy="61.9" r="0.5"/>
</g>
</svg>
