<?xml version="1.0" encoding="utf-8"?>
<!-- Generator: Adobe Illustrator 19.0.0, SVG Export Plug-In . SVG Version: 6.00 Build 0)  -->
<svg version="1.1" id="Layer_1" xmlns="http://www.w3.org/2000/svg" xmlns:xlink="http://www.w3.org/1999/xlink" x="0px" y="0px"
	 viewBox="0 0 85 85" style="enable-background:new 0 0 85 85;" xml:space="preserve">
<style type="text/css">
	.st0{fill:#231F20;stroke:#231F20;stroke-width:2;stroke-miterlimit:10;}
</style>
<path id="XMLID_9365_" class="st0" d="M13.1,69.1C14,65.8,16.5,58,23.8,52.9c0.9-0.6,3-2.1,6.2-3.2c5.8-2,12.1-1.6,14.1-1.4
	c2.1,0.1,3.2,0.4,5.1,0c0.9-0.2,3.9-0.8,6.4-3c3.6-3.2,3.8-7.9,4-10.5c0.1-1.5,0.3-7.1-3-12.2c-2.1-3.2-5.1-5.6-4.4-6.5
	c0.2-0.3,0.6-0.2,1.9-0.5c0.6-0.1,2.3-0.6,3.3-1.4c1.9-1.7,0.8-4.9,1.9-5.2c0.6-0.2,1.5,0.9,2.2,1.7c3.5,4.3,5.2,6.5,5.4,6.8
	c1.3,2.2,3.4,5.8,4.6,11c0.7,2.9,2.4,10.6-0.8,19.2c-1.3,3.5-3.3,9.1-8.9,12.2c-1,0.6-5.1,2.9-9.8,2.5c-1-0.1-2.1-0.3-5.9-0.6
	c-2.5-0.2-3.8-0.4-4.6-0.3c-1.4,0.1-4.2,0.5-7,2.2c-3,1.9-4.5,4.5-5.4,6c-1.7,3-2.2,5.7-2.9,5.6c-0.4-0.1-0.3-1.2-1-2.7
	c-1.4-2.9-4.7-3.9-5.4-4.1C16.5,67.6,13.8,68.8,13.1,69.1z"/>
</svg>
