<?xml version="1.0" encoding="utf-8"?>
<!-- Generator: Adobe Illustrator 19.0.0, SVG Export Plug-In . SVG Version: 6.00 Build 0)  -->
<svg version="1.1" id="Layer_1" xmlns="http://www.w3.org/2000/svg" xmlns:xlink="http://www.w3.org/1999/xlink" x="0px" y="0px"
	 viewBox="0 0 85 85" style="enable-background:new 0 0 85 85;" xml:space="preserve">
<style type="text/css">
	.st0{fill:none;stroke:#231F20;stroke-width:1.4896;stroke-miterlimit:10;}
</style>
<g id="XMLID_9512_">
	<rect id="XMLID_9541_" x="21.2" y="19.9" class="st0" width="43.6" height="44.2"/>
	<line id="XMLID_9540_" class="st0" x1="25" y1="30.4" x2="27" y2="25.2"/>
	<line id="XMLID_9539_" class="st0" x1="34.8" y1="22.4" x2="36.8" y2="28"/>
	<line id="XMLID_9538_" class="st0" x1="37.2" y1="34.4" x2="43.8" y2="29.2"/>
	<line id="XMLID_9537_" class="st0" x1="28.9" y1="34.6" x2="33.9" y2="38.4"/>
	<line id="XMLID_9536_" class="st0" x1="27.9" y1="39.9" x2="29.8" y2="47.1"/>
	<line id="XMLID_9535_" class="st0" x1="35.7" y1="46.7" x2="39.6" y2="42.7"/>
	<line id="XMLID_9534_" class="st0" x1="45.1" y1="37" x2="49" y2="33.2"/>
	<line id="XMLID_9533_" class="st0" x1="46.7" y1="22.6" x2="51.6" y2="27.6"/>
	<line id="XMLID_9532_" class="st0" x1="56.3" y1="29.2" x2="60.9" y2="23.8"/>
	<line id="XMLID_9531_" class="st0" x1="55.4" y1="22.7" x2="55.2" y2="20"/>
	<line id="XMLID_9530_" class="st0" x1="24.2" y1="22.4" x2="23.4" y2="19.9"/>
	<line id="XMLID_9529_" class="st0" x1="21.6" y1="50.8" x2="24.4" y2="53.3"/>
	<line id="XMLID_9528_" class="st0" x1="28.8" y1="54.8" x2="32.5" y2="51.2"/>
	<line id="XMLID_9527_" class="st0" x1="41.5" y1="48.3" x2="43.2" y2="53.6"/>
	<line id="XMLID_9526_" class="st0" x1="45.6" y1="42.6" x2="45.9" y2="46.6"/>
	<line id="XMLID_9525_" class="st0" x1="51" y1="44" x2="57.1" y2="37.5"/>
	<line id="XMLID_9524_" class="st0" x1="53.3" y1="32.4" x2="56.9" y2="35.3"/>
	<line id="XMLID_9523_" class="st0" x1="61.6" y1="33.4" x2="64.4" y2="35.4"/>
	<line id="XMLID_9522_" class="st0" x1="62.7" y1="43.7" x2="64.4" y2="42.7"/>
	<line id="XMLID_9521_" class="st0" x1="58.1" y1="46.7" x2="55" y2="52.3"/>
	<line id="XMLID_9520_" class="st0" x1="48" y1="53.1" x2="51.5" y2="49.5"/>
	<line id="XMLID_9519_" class="st0" x1="47.8" y1="57" x2="53.3" y2="58.5"/>
	<line id="XMLID_9518_" class="st0" x1="58.9" y1="53.7" x2="64.3" y2="59"/>
	<line id="XMLID_9517_" class="st0" x1="59.5" y1="60.2" x2="56.8" y2="63.6"/>
	<line id="XMLID_9516_" class="st0" x1="45.2" y1="60.9" x2="42.5" y2="60.7"/>
	<line id="XMLID_9515_" class="st0" x1="40.9" y1="61.3" x2="41.8" y2="64.2"/>
	<line id="XMLID_9514_" class="st0" x1="34.8" y1="60" x2="38" y2="55.8"/>
	<line id="XMLID_9513_" class="st0" x1="26.5" y1="61.4" x2="26.5" y2="63.6"/>
</g>
</svg>
