<?xml version="1.0" encoding="utf-8"?>
<!-- Generator: Adobe Illustrator 19.0.0, SVG Export Plug-In . SVG Version: 6.00 Build 0)  -->
<svg version="1.1" id="Layer_1" xmlns="http://www.w3.org/2000/svg" xmlns:xlink="http://www.w3.org/1999/xlink" x="0px" y="0px"
	 viewBox="0 0 85 85" style="enable-background:new 0 0 85 85;" xml:space="preserve">
<style type="text/css">
	.st0{fill:#231F20;stroke:#231F20;stroke-width:2;stroke-miterlimit:10;}
</style>
<path id="XMLID_9351_" class="st0" d="M24.7,69.5C22.1,68,13.4,62.6,9.1,51.4c-0.8-2.2-4.6-12.8,0-24.6c0.9-2.3,4.6-11.4,13.4-15.9
	c2-1,5.3-2.7,9.7-2.2c3.5,0.4,6,2.1,7.2,2.8c2.4,1.6,4.1,3.5,4.7,4.5c0.9,1.6,1,1.7,1,1.7c0.3,0.8,0.4,1.2,0.7,1.2
	c0.3,0.1,0.6-0.4,1.3-1.1c0.5-0.5,1.1-0.9,1.6-1.4c1.3-1.2,3.6-2.8,4.7-3.3c2.8-1.5,7-2,10.6-1.2c7,1.5,10.6,7.4,11.9,9.4
	c6.1,9.8,2.9,21.1,1.9,24.7c-0.8,2.9-5.1,18.3-20.9,25.2C55.5,71.7,40,78.1,24.7,69.5z"/>
</svg>
