<?xml version="1.0" encoding="utf-8"?>
<!-- Generator: Adobe Illustrator 19.0.0, SVG Export Plug-In . SVG Version: 6.00 Build 0)  -->
<svg version="1.1" id="Layer_1" xmlns="http://www.w3.org/2000/svg" xmlns:xlink="http://www.w3.org/1999/xlink" x="0px" y="0px"
	 viewBox="0 0 360 28.2" style="enable-background:new 0 0 360 28.2;" xml:space="preserve">
<style type="text/css">
	.st0{clip-path:url(#XMLID_21_);fill:none;stroke:#1D4497;stroke-width:1.2079;}
	.st1{fill:none;stroke:#414141;stroke-width:1.0757;stroke-miterlimit:10;}
</style>
<g id="XMLID_6_">
	<defs>
		<rect id="XMLID_7_" x="4.3" y="12.4" width="350.6" height="5"/>
	</defs>
	<clipPath id="XMLID_21_">
		<use xlink:href="#XMLID_7_"  style="overflow:visible;"/>
	</clipPath>
	<path id="XMLID_17_" class="st0" d="M4.3,14.9c2.1-2.4,6.3-2.4,8.3,0c2.1,2.4,6.3,2.4,8.3,0c2.1-2.4,6.3-2.4,8.3,0
		c2.1,2.4,6.3,2.4,8.3,0c2.1-2.4,6.3-2.4,8.3,0c2.1,2.4,6.3,2.4,8.3,0c2.1-2.4,6.3-2.4,8.3,0s6.3,2.4,8.3,0c2.1-2.4,6.3-2.4,8.3,0
		c2.1,2.4,6.3,2.4,8.3,0c2.1-2.4,6.3-2.4,8.3,0c2.1,2.4,6.3,2.4,8.3,0c2.1-2.4,6.3-2.4,8.3,0c2.1,2.4,6.3,2.4,8.3,0s6.3-2.4,8.3,0
		c2.1,2.4,6.3,2.4,8.3,0c2.1-2.4,6.3-2.4,8.3,0c2.1,2.4,6.3,2.4,8.3,0c2.1-2.4,6.3-2.4,8.3,0c2.1,2.4,6.3,2.4,8.3,0
		c2.1-2.4,6.3-2.4,8.3,0c2.1,2.4,6.3,2.4,8.3,0c2.1-2.4,6.3-2.4,8.3,0c2.1,2.4,6.3,2.4,8.3,0c2.1-2.4,6.3-2.4,8.3,0
		c2.1,2.4,6.3,2.4,8.3,0c2.1-2.4,6.3-2.4,8.3,0c2.1,2.4,6.3,2.4,8.3,0c2.1-2.4,6.3-2.4,8.3,0c2.1,2.4,6.3,2.4,8.3,0
		c2.1-2.4,6.3-2.4,8.3,0c2.1,2.4,6.3,2.4,8.3,0c2.1-2.4,6.3-2.4,8.3,0c2.1,2.4,6.3,2.4,8.3,0c2.1-2.4,6.3-2.4,8.3,0
		c2.1,2.4,6.3,2.4,8.3,0c2.1-2.4,6.3-2.4,8.3,0c2.1,2.4,6.3,2.4,8.3,0c2.1-2.4,6.3-2.4,8.3,0c2.1,2.4,6.3,2.4,8.3,0
		c2.1-2.4,6.3-2.4,8.3,0c2.1,2.4,6.3,2.4,8.3,0"/>
</g>
<rect id="XMLID_2_" x="418.6" y="-38.7" class="st1" width="350.1" height="73"/>
<line id="XMLID_18_" class="st1" x1="593.8" y1="-61" x2="593.8" y2="128.7"/>
<polygon id="XMLID_20_" class="st1" points="0.4,138.3 1,60.8 357.2,60.8 357.7,139.9 179.1,235.1 "/>
</svg>
