<?xml version="1.0" encoding="utf-8"?>
<!-- Generator: Adobe Illustrator 19.0.0, SVG Export Plug-In . SVG Version: 6.00 Build 0)  -->
<svg version="1.1" id="Layer_1" xmlns="http://www.w3.org/2000/svg" xmlns:xlink="http://www.w3.org/1999/xlink" x="0px" y="0px"
	 viewBox="0 0 360 28.2" style="enable-background:new 0 0 360 28.2;" xml:space="preserve">
<style type="text/css">
	.st0{clip-path:url(#XMLID_18_);fill:none;stroke:#231F20;stroke-width:1.1839;}
</style>
<g id="XMLID_2_">
	<defs>
		<rect id="XMLID_6_" x="9.4" y="12.7" width="336.8" height="5"/>
	</defs>
	<clipPath id="XMLID_18_">
		<use xlink:href="#XMLID_6_"  style="overflow:visible;"/>
	</clipPath>
	<path id="XMLID_7_" class="st0" d="M9.4,15.2c2-2.4,6-2.4,8,0c2,2.4,6,2.4,8,0c2-2.4,6-2.4,8,0c2,2.4,6,2.4,8,0c2-2.4,6-2.4,8,0
		c2,2.4,6,2.4,8,0c2-2.4,6-2.4,8,0c2,2.4,6,2.4,8,0c2-2.4,6-2.4,8,0c2,2.4,6,2.4,8,0c2-2.4,6-2.4,8,0c2,2.4,6,2.4,8,0
		c2-2.4,6-2.4,8,0c2,2.4,6,2.4,8,0c2-2.4,6-2.4,8,0c2,2.4,6,2.4,8,0c2-2.4,6-2.4,8,0c2,2.4,6,2.4,8,0c2-2.4,6-2.4,8,0
		c2,2.4,6,2.4,8,0c2-2.4,6-2.4,8,0c2,2.4,6,2.4,8,0c2-2.4,6-2.4,8,0c2,2.4,6,2.4,8,0c2-2.4,6-2.4,8,0c2,2.4,6,2.4,8,0
		c2-2.4,6-2.4,8,0c2,2.4,6,2.4,8,0s6-2.4,8,0c2,2.4,6,2.4,8,0c2-2.4,6-2.4,8,0c2,2.4,6,2.4,8,0c2-2.4,6-2.4,8,0c2,2.4,6,2.4,8,0
		c2-2.4,6-2.4,8,0c2,2.4,6,2.4,8,0c2-2.4,6-2.4,8,0c2,2.4,6,2.4,8,0c2-2.4,6-2.4,8,0c2,2.4,6,2.4,8,0c2-2.4,6-2.4,8,0
		c2,2.4,6,2.4,8,0"/>
</g>
</svg>
